<mxfile host="65bd71144e">
    <diagram id="C5RBs43oDa-KdzZeNtuy" name="Page-1">
        <mxGraphModel dx="1279" dy="725" grid="1" gridSize="10" guides="1" tooltips="1" connect="1" arrows="1" fold="1" page="1" pageScale="1" pageWidth="1920" pageHeight="1200" math="0" shadow="0">
            <root>
                <mxCell id="WIyWlLk6GJQsqaUBKTNV-0"/>
                <mxCell id="WIyWlLk6GJQsqaUBKTNV-1" parent="WIyWlLk6GJQsqaUBKTNV-0"/>
                <mxCell id="zkfFHV4jXpPFQw0GAbJ--0" value="Register" style="swimlane;fontStyle=2;align=center;verticalAlign=top;childLayout=stackLayout;horizontal=1;startSize=26;horizontalStack=0;resizeParent=1;resizeLast=0;collapsible=1;marginBottom=0;rounded=0;shadow=0;strokeWidth=1;" parent="WIyWlLk6GJQsqaUBKTNV-1" vertex="1">
                    <mxGeometry x="10" y="10" width="520" height="190" as="geometry">
                        <mxRectangle x="100" y="50" width="160" height="26" as="alternateBounds"/>
                    </mxGeometry>
                </mxCell>
                <mxCell id="zkfFHV4jXpPFQw0GAbJ--1" value="&quot;data&quot;: {&#10;        &quot;isVerified&quot;: false,&#10;        &quot;role&quot;: true,&#10;        &quot;id&quot;: 151,&#10;        &quot;username&quot;: &quot;ujedkemal+46&quot;,&#10;        &quot;email&quot;: &quot;ujedkemal+46@gmail.com&quot;,&#10;        &quot;phone&quot;: &quot;089652433206&quot;,&#10;        &quot;password&quot;: &quot;$2b$10$xQc3E/K2/.ZurkKoXDjqKej2jN2ocNZgWfKivYX.0ApD8qb4EyyYW&quot;,&#10;        &quot;updatedAt&quot;: &quot;2023-06-05T17:01:22.204Z&quot;,&#10;        &quot;createdAt&quot;: &quot;2023-06-05T17:01:22.204Z&quot;&#10;    }," style="text;align=left;verticalAlign=top;spacingLeft=4;spacingRight=4;overflow=hidden;rotatable=0;points=[[0,0.5],[1,0.5]];portConstraint=eastwest;" parent="zkfFHV4jXpPFQw0GAbJ--0" vertex="1">
                    <mxGeometry y="26" width="520" height="164" as="geometry"/>
                </mxCell>
                <mxCell id="A8s8aAI_JmD5nAPYPZiT-0" value="Login" style="swimlane;fontStyle=2;align=center;verticalAlign=top;childLayout=stackLayout;horizontal=1;startSize=26;horizontalStack=0;resizeParent=1;resizeLast=0;collapsible=1;marginBottom=0;rounded=0;shadow=0;strokeWidth=1;" parent="WIyWlLk6GJQsqaUBKTNV-1" vertex="1">
                    <mxGeometry x="570" width="520" height="210" as="geometry">
                        <mxRectangle x="100" y="50" width="160" height="26" as="alternateBounds"/>
                    </mxGeometry>
                </mxCell>
                <mxCell id="A8s8aAI_JmD5nAPYPZiT-1" value="&quot;isAccountExist&quot;: {&#10;        &quot;id&quot;: 11,&#10;        &quot;username&quot;: &quot;usaidaka&quot;,&#10;        &quot;email&quot;: &quot;ujedkemal@gmail.com&quot;,&#10;        &quot;phone&quot;: &quot;089652433206&quot;,&#10;        &quot;password&quot;: &quot;$2b$10$fjXKTzsmZanxaop6Mx3Gou.mfnBO.g/eUVMdfM/yJBPHAjq8QcH4O&quot;,&#10;        &quot;isVerified&quot;: true,&#10;        &quot;role&quot;: true,&#10;         &quot;imgProfile&quot;: &quot;Public/Avatar-11.png&quot;,&#10;        &quot;createdAt&quot;: &quot;2023-05-15T06:24:44.000Z&quot;,&#10;        &quot;updatedAt&quot;: &quot;2023-06-05T06:26:43.000Z&quot;&#10;    }," style="text;align=left;verticalAlign=top;spacingLeft=4;spacingRight=4;overflow=hidden;rotatable=0;points=[[0,0.5],[1,0.5]];portConstraint=eastwest;fontStyle=1" parent="A8s8aAI_JmD5nAPYPZiT-0" vertex="1">
                    <mxGeometry y="26" width="520" height="184" as="geometry"/>
                </mxCell>
                <mxCell id="A8s8aAI_JmD5nAPYPZiT-19" value="Keep Login" style="swimlane;fontStyle=2;align=center;verticalAlign=top;childLayout=stackLayout;horizontal=1;startSize=26;horizontalStack=0;resizeParent=1;resizeLast=0;collapsible=1;marginBottom=0;rounded=0;shadow=0;strokeWidth=1;" parent="WIyWlLk6GJQsqaUBKTNV-1" vertex="1">
                    <mxGeometry x="1120" width="520" height="210" as="geometry">
                        <mxRectangle x="100" y="50" width="160" height="26" as="alternateBounds"/>
                    </mxGeometry>
                </mxCell>
                <mxCell id="A8s8aAI_JmD5nAPYPZiT-20" value="{&#10;    &quot;id&quot;: 151,&#10;    &quot;username&quot;: &quot;ujedkemal+46&quot;,&#10;    &quot;email&quot;: &quot;ujedkemal+46@gmail.com&quot;,&#10;    &quot;phone&quot;: &quot;089652433206&quot;,&#10;    &quot;password&quot;: &quot;$2b$10$xQc3E/K2/.ZurkKoXDjqKej2jN2ocNZgWfKivYX.0ApD8qb4EyyYW&quot;,&#10;    &quot;imgProfile&quot;: null,&#10;    &quot;isVerified&quot;: true,&#10;    &quot;role&quot;: true,&#10;    &quot;createdAt&quot;: &quot;2023-06-05T17:01:22.000Z&quot;,&#10;    &quot;updatedAt&quot;: &quot;2023-06-05T17:04:20.000Z&quot;&#10;}" style="text;align=left;verticalAlign=top;spacingLeft=4;spacingRight=4;overflow=hidden;rotatable=0;points=[[0,0.5],[1,0.5]];portConstraint=eastwest;" parent="A8s8aAI_JmD5nAPYPZiT-19" vertex="1">
                    <mxGeometry y="26" width="520" height="184" as="geometry"/>
                </mxCell>
                <mxCell id="A8s8aAI_JmD5nAPYPZiT-31" value="Get Blog" style="swimlane;fontStyle=0;childLayout=stackLayout;horizontal=1;startSize=26;fillColor=none;horizontalStack=0;resizeParent=1;resizeParentMax=0;resizeLast=0;collapsible=1;marginBottom=0;html=1;" parent="WIyWlLk6GJQsqaUBKTNV-1" vertex="1">
                    <mxGeometry x="570" y="250" width="430" height="760" as="geometry"/>
                </mxCell>
                <mxCell id="A8s8aAI_JmD5nAPYPZiT-32" value="&lt;div style=&quot;border-color: var(--border-color);&quot;&gt;&quot;result&quot;:&amp;nbsp;[&lt;/div&gt;&lt;div style=&quot;border-color: var(--border-color);&quot;&gt;&amp;nbsp;&amp;nbsp;&amp;nbsp;&amp;nbsp;&amp;nbsp;&amp;nbsp;&amp;nbsp;&amp;nbsp;{&lt;/div&gt;&lt;div style=&quot;border-color: var(--border-color);&quot;&gt;&amp;nbsp;&amp;nbsp;&amp;nbsp;&amp;nbsp;&amp;nbsp;&amp;nbsp;&amp;nbsp;&amp;nbsp;&amp;nbsp;&amp;nbsp;&amp;nbsp;&amp;nbsp;&quot;id&quot;:&amp;nbsp;&lt;span style=&quot;border-color: var(--border-color); color: rgb(9, 134, 88);&quot;&gt;135&lt;/span&gt;,&lt;/div&gt;&lt;div style=&quot;border-color: var(--border-color);&quot;&gt;&amp;nbsp;&amp;nbsp;&amp;nbsp;&amp;nbsp;&amp;nbsp;&amp;nbsp;&amp;nbsp;&amp;nbsp;&amp;nbsp;&amp;nbsp;&amp;nbsp;&amp;nbsp;&lt;span style=&quot;border-color: var(--border-color); color: rgb(163, 21, 21);&quot;&gt;&quot;title&quot;&lt;/span&gt;:&amp;nbsp;&lt;span style=&quot;border-color: var(--border-color); color: rgb(4, 81, 165);&quot;&gt;&quot;hello&amp;nbsp;world&quot;&lt;/span&gt;,&lt;/div&gt;&lt;div style=&quot;border-color: var(--border-color);&quot;&gt;&amp;nbsp;&amp;nbsp;&amp;nbsp;&amp;nbsp;&amp;nbsp;&amp;nbsp;&amp;nbsp;&amp;nbsp;&amp;nbsp;&amp;nbsp;&amp;nbsp;&amp;nbsp;&lt;span style=&quot;border-color: var(--border-color); color: rgb(163, 21, 21);&quot;&gt;&quot;imageURL&quot;&lt;/span&gt;:&amp;nbsp;&lt;span style=&quot;border-color: var(--border-color); color: rgb(4, 81, 165);&quot;&gt;&quot;Public/Blog-168544281916185388.png&quot;&lt;/span&gt;,&lt;/div&gt;&lt;div style=&quot;border-color: var(--border-color);&quot;&gt;&amp;nbsp;&amp;nbsp;&amp;nbsp;&amp;nbsp;&amp;nbsp;&amp;nbsp;&amp;nbsp;&amp;nbsp;&amp;nbsp;&amp;nbsp;&amp;nbsp;&amp;nbsp;&lt;span style=&quot;border-color: var(--border-color); color: rgb(163, 21, 21);&quot;&gt;&quot;content&quot;&lt;/span&gt;:&amp;nbsp;&lt;span style=&quot;border-color: var(--border-color); color: rgb(4, 81, 165);&quot;&gt;&quot;Override&amp;nbsp;HTTP&amp;nbsp;response&amp;nbsp;headers&amp;nbsp;in&amp;nbsp;the&amp;nbsp;Network&amp;nbsp;panel\nSpecify&amp;nbsp;HTTP&amp;nbsp;response&amp;nbsp;headers&amp;nbsp;locally&amp;nbsp;to&amp;nbsp;experiment&amp;nbsp;with&amp;nbsp;different&amp;nbsp;values.&quot;&lt;/span&gt;,&lt;/div&gt;&lt;div style=&quot;border-color: var(--border-color);&quot;&gt;&amp;nbsp;&amp;nbsp;&amp;nbsp;&amp;nbsp;&amp;nbsp;&amp;nbsp;&amp;nbsp;&amp;nbsp;&amp;nbsp;&amp;nbsp;&amp;nbsp;&amp;nbsp;&lt;span style=&quot;border-color: var(--border-color); color: rgb(163, 21, 21);&quot;&gt;&quot;videoURL&quot;&lt;/span&gt;:&amp;nbsp;&lt;span style=&quot;border-color: var(--border-color); color: rgb(4, 81, 165);&quot;&gt;&quot;www.google.com&quot;&lt;/span&gt;,&lt;/div&gt;&lt;div style=&quot;border-color: var(--border-color);&quot;&gt;&amp;nbsp;&amp;nbsp;&amp;nbsp;&amp;nbsp;&amp;nbsp;&amp;nbsp;&amp;nbsp;&amp;nbsp;&amp;nbsp;&amp;nbsp;&amp;nbsp;&amp;nbsp;&lt;span style=&quot;border-color: var(--border-color); color: rgb(163, 21, 21);&quot;&gt;&quot;country&quot;&lt;/span&gt;:&amp;nbsp;&lt;span style=&quot;border-color: var(--border-color); color: rgb(4, 81, 165);&quot;&gt;&quot;of&amp;nbsp;old&amp;nbsp;men&quot;&lt;/span&gt;,&lt;/div&gt;&lt;div style=&quot;border-color: var(--border-color);&quot;&gt;&amp;nbsp;&amp;nbsp;&amp;nbsp;&amp;nbsp;&amp;nbsp;&amp;nbsp;&amp;nbsp;&amp;nbsp;&amp;nbsp;&amp;nbsp;&amp;nbsp;&amp;nbsp;&lt;span style=&quot;border-color: var(--border-color); color: rgb(163, 21, 21);&quot;&gt;&quot;isPublished&quot;&lt;/span&gt;:&amp;nbsp;&lt;span style=&quot;border-color: var(--border-color); color: rgb(4, 81, 165); font-weight: bold;&quot;&gt;false&lt;/span&gt;,&lt;/div&gt;&lt;div style=&quot;border-color: var(--border-color);&quot;&gt;&amp;nbsp;&amp;nbsp;&amp;nbsp;&amp;nbsp;&amp;nbsp;&amp;nbsp;&amp;nbsp;&amp;nbsp;&amp;nbsp;&amp;nbsp;&amp;nbsp;&amp;nbsp;&lt;span style=&quot;border-color: var(--border-color); color: rgb(163, 21, 21);&quot;&gt;&quot;isDeleted&quot;&lt;/span&gt;:&amp;nbsp;&lt;span style=&quot;border-color: var(--border-color); color: rgb(4, 81, 165); font-weight: bold;&quot;&gt;false&lt;/span&gt;,&lt;/div&gt;&lt;div style=&quot;border-color: var(--border-color);&quot;&gt;&amp;nbsp;&amp;nbsp;&amp;nbsp;&amp;nbsp;&amp;nbsp;&amp;nbsp;&amp;nbsp;&amp;nbsp;&amp;nbsp;&amp;nbsp;&amp;nbsp;&amp;nbsp;&lt;span style=&quot;border-color: var(--border-color); color: rgb(163, 21, 21);&quot;&gt;&quot;createdAt&quot;&lt;/span&gt;:&amp;nbsp;&lt;span style=&quot;border-color: var(--border-color); color: rgb(4, 81, 165);&quot;&gt;&quot;2023-05-30T10:33:39.000Z&quot;&lt;/span&gt;,&lt;/div&gt;&lt;div style=&quot;border-color: var(--border-color);&quot;&gt;&amp;nbsp;&amp;nbsp;&amp;nbsp;&amp;nbsp;&amp;nbsp;&amp;nbsp;&amp;nbsp;&amp;nbsp;&amp;nbsp;&amp;nbsp;&amp;nbsp;&amp;nbsp;&lt;span style=&quot;border-color: var(--border-color); color: rgb(163, 21, 21);&quot;&gt;&quot;updatedAt&quot;&lt;/span&gt;:&amp;nbsp;&lt;span style=&quot;border-color: var(--border-color); color: rgb(4, 81, 165);&quot;&gt;&quot;2023-05-30T10:33:39.000Z&quot;&lt;/span&gt;,&lt;/div&gt;&lt;div style=&quot;border-color: var(--border-color);&quot;&gt;&amp;nbsp;&amp;nbsp;&amp;nbsp;&amp;nbsp;&amp;nbsp;&amp;nbsp;&amp;nbsp;&amp;nbsp;&amp;nbsp;&amp;nbsp;&amp;nbsp;&amp;nbsp;&lt;span style=&quot;border-color: var(--border-color); color: rgb(163, 21, 21);&quot;&gt;&quot;UserId&quot;&lt;/span&gt;:&amp;nbsp;&lt;span style=&quot;border-color: var(--border-color); color: rgb(9, 134, 88);&quot;&gt;8&lt;/span&gt;,&lt;/div&gt;&lt;div style=&quot;border-color: var(--border-color);&quot;&gt;&amp;nbsp;&amp;nbsp;&amp;nbsp;&amp;nbsp;&amp;nbsp;&amp;nbsp;&amp;nbsp;&amp;nbsp;&amp;nbsp;&amp;nbsp;&amp;nbsp;&amp;nbsp;&lt;span style=&quot;border-color: var(--border-color); color: rgb(163, 21, 21);&quot;&gt;&quot;CategoryId&quot;&lt;/span&gt;:&amp;nbsp;&lt;span style=&quot;border-color: var(--border-color); color: rgb(9, 134, 88);&quot;&gt;5&lt;/span&gt;,&lt;/div&gt;&lt;div style=&quot;border-color: var(--border-color);&quot;&gt;&amp;nbsp;&amp;nbsp;&amp;nbsp;&amp;nbsp;&amp;nbsp;&amp;nbsp;&amp;nbsp;&amp;nbsp;&amp;nbsp;&amp;nbsp;&amp;nbsp;&amp;nbsp;&lt;span style=&quot;border-color: var(--border-color); color: rgb(163, 21, 21);&quot;&gt;&quot;User&quot;&lt;/span&gt;:&amp;nbsp;{&lt;/div&gt;&lt;div style=&quot;border-color: var(--border-color);&quot;&gt;&amp;nbsp;&amp;nbsp;&amp;nbsp;&amp;nbsp;&amp;nbsp;&amp;nbsp;&amp;nbsp;&amp;nbsp;&amp;nbsp;&amp;nbsp;&amp;nbsp;&amp;nbsp;&amp;nbsp;&amp;nbsp;&amp;nbsp;&amp;nbsp;&lt;span style=&quot;border-color: var(--border-color); color: rgb(163, 21, 21);&quot;&gt;&quot;username&quot;&lt;/span&gt;:&amp;nbsp;&lt;span style=&quot;border-color: var(--border-color); color: rgb(4, 81, 165);&quot;&gt;&quot;vanessaa&quot;&lt;/span&gt;,&lt;/div&gt;&lt;div style=&quot;border-color: var(--border-color);&quot;&gt;&amp;nbsp;&amp;nbsp;&amp;nbsp;&amp;nbsp;&amp;nbsp;&amp;nbsp;&amp;nbsp;&amp;nbsp;&amp;nbsp;&amp;nbsp;&amp;nbsp;&amp;nbsp;&amp;nbsp;&amp;nbsp;&amp;nbsp;&amp;nbsp;&lt;span style=&quot;border-color: var(--border-color); color: rgb(163, 21, 21);&quot;&gt;&quot;imgProfile&quot;&lt;/span&gt;:&amp;nbsp;&lt;span style=&quot;border-color: var(--border-color); color: rgb(4, 81, 165);&quot;&gt;&quot;Public/Avatar-8.jpeg&quot;&lt;/span&gt;&lt;/div&gt;&lt;div style=&quot;border-color: var(--border-color);&quot;&gt;&amp;nbsp;&amp;nbsp;&amp;nbsp;&amp;nbsp;&amp;nbsp;&amp;nbsp;&amp;nbsp;&amp;nbsp;&amp;nbsp;&amp;nbsp;&amp;nbsp;&amp;nbsp;},&lt;/div&gt;&lt;div style=&quot;border-color: var(--border-color);&quot;&gt;&amp;nbsp;&amp;nbsp;&amp;nbsp;&amp;nbsp;&amp;nbsp;&amp;nbsp;&amp;nbsp;&amp;nbsp;&amp;nbsp;&amp;nbsp;&amp;nbsp;&amp;nbsp;&lt;span style=&quot;border-color: var(--border-color); color: rgb(163, 21, 21);&quot;&gt;&quot;Category&quot;&lt;/span&gt;:&amp;nbsp;{&lt;/div&gt;&lt;div style=&quot;border-color: var(--border-color);&quot;&gt;&amp;nbsp;&amp;nbsp;&amp;nbsp;&amp;nbsp;&amp;nbsp;&amp;nbsp;&amp;nbsp;&amp;nbsp;&amp;nbsp;&amp;nbsp;&amp;nbsp;&amp;nbsp;&amp;nbsp;&amp;nbsp;&amp;nbsp;&amp;nbsp;&lt;span style=&quot;border-color: var(--border-color); color: rgb(163, 21, 21);&quot;&gt;&quot;id&quot;&lt;/span&gt;:&amp;nbsp;&lt;span style=&quot;border-color: var(--border-color); color: rgb(9, 134, 88);&quot;&gt;5&lt;/span&gt;,&lt;/div&gt;&lt;div style=&quot;border-color: var(--border-color);&quot;&gt;&amp;nbsp;&amp;nbsp;&amp;nbsp;&amp;nbsp;&amp;nbsp;&amp;nbsp;&amp;nbsp;&amp;nbsp;&amp;nbsp;&amp;nbsp;&amp;nbsp;&amp;nbsp;&amp;nbsp;&amp;nbsp;&amp;nbsp;&amp;nbsp;&lt;span style=&quot;border-color: var(--border-color); color: rgb(163, 21, 21);&quot;&gt;&quot;name&quot;&lt;/span&gt;:&amp;nbsp;&lt;span style=&quot;border-color: var(--border-color); color: rgb(4, 81, 165);&quot;&gt;&quot;Kuliner&quot;&lt;/span&gt;&lt;/div&gt;&lt;div style=&quot;border-color: var(--border-color);&quot;&gt;&amp;nbsp;&amp;nbsp;&amp;nbsp;&amp;nbsp;&amp;nbsp;&amp;nbsp;&amp;nbsp;&amp;nbsp;&amp;nbsp;&amp;nbsp;&amp;nbsp;&amp;nbsp;},&lt;/div&gt;&lt;div style=&quot;border-color: var(--border-color);&quot;&gt;&amp;nbsp;&amp;nbsp;&amp;nbsp;&amp;nbsp;&amp;nbsp;&amp;nbsp;&amp;nbsp;&amp;nbsp;&amp;nbsp;&amp;nbsp;&amp;nbsp;&amp;nbsp;&lt;span style=&quot;border-color: var(--border-color); color: rgb(163, 21, 21);&quot;&gt;&quot;Blog_Keywords&quot;&lt;/span&gt;:&amp;nbsp;[&lt;/div&gt;&lt;div style=&quot;border-color: var(--border-color);&quot;&gt;&amp;nbsp;&amp;nbsp;&amp;nbsp;&amp;nbsp;&amp;nbsp;&amp;nbsp;&amp;nbsp;&amp;nbsp;&amp;nbsp;&amp;nbsp;&amp;nbsp;&amp;nbsp;&amp;nbsp;&amp;nbsp;&amp;nbsp;&amp;nbsp;{&lt;/div&gt;&lt;div style=&quot;border-color: var(--border-color);&quot;&gt;&amp;nbsp;&amp;nbsp;&amp;nbsp;&amp;nbsp;&amp;nbsp;&amp;nbsp;&amp;nbsp;&amp;nbsp;&amp;nbsp;&amp;nbsp;&amp;nbsp;&amp;nbsp;&amp;nbsp;&amp;nbsp;&amp;nbsp;&amp;nbsp;&amp;nbsp;&amp;nbsp;&amp;nbsp;&amp;nbsp;&lt;span style=&quot;border-color: var(--border-color); color: rgb(163, 21, 21);&quot;&gt;&quot;id&quot;&lt;/span&gt;:&amp;nbsp;&lt;span style=&quot;border-color: var(--border-color); color: rgb(9, 134, 88);&quot;&gt;225&lt;/span&gt;,&lt;/div&gt;&lt;div style=&quot;border-color: var(--border-color);&quot;&gt;&amp;nbsp;&amp;nbsp;&amp;nbsp;&amp;nbsp;&amp;nbsp;&amp;nbsp;&amp;nbsp;&amp;nbsp;&amp;nbsp;&amp;nbsp;&amp;nbsp;&amp;nbsp;&amp;nbsp;&amp;nbsp;&amp;nbsp;&amp;nbsp;&amp;nbsp;&amp;nbsp;&amp;nbsp;&amp;nbsp;&lt;span style=&quot;border-color: var(--border-color); color: rgb(163, 21, 21);&quot;&gt;&quot;BlogId&quot;&lt;/span&gt;:&amp;nbsp;&lt;span style=&quot;border-color: var(--border-color); color: rgb(9, 134, 88);&quot;&gt;135&lt;/span&gt;,&lt;/div&gt;&lt;div style=&quot;border-color: var(--border-color);&quot;&gt;&amp;nbsp;&amp;nbsp;&amp;nbsp;&amp;nbsp;&amp;nbsp;&amp;nbsp;&amp;nbsp;&amp;nbsp;&amp;nbsp;&amp;nbsp;&amp;nbsp;&amp;nbsp;&amp;nbsp;&amp;nbsp;&amp;nbsp;&amp;nbsp;&amp;nbsp;&amp;nbsp;&amp;nbsp;&amp;nbsp;&lt;span style=&quot;border-color: var(--border-color); color: rgb(163, 21, 21);&quot;&gt;&quot;KeywordId&quot;&lt;/span&gt;:&amp;nbsp;&lt;span style=&quot;border-color: var(--border-color); color: rgb(9, 134, 88);&quot;&gt;67&lt;/span&gt;,&lt;/div&gt;&lt;div style=&quot;border-color: var(--border-color);&quot;&gt;&amp;nbsp;&amp;nbsp;&amp;nbsp;&amp;nbsp;&amp;nbsp;&amp;nbsp;&amp;nbsp;&amp;nbsp;&amp;nbsp;&amp;nbsp;&amp;nbsp;&amp;nbsp;&amp;nbsp;&amp;nbsp;&amp;nbsp;&amp;nbsp;&amp;nbsp;&amp;nbsp;&amp;nbsp;&amp;nbsp;&lt;span style=&quot;border-color: var(--border-color); color: rgb(163, 21, 21);&quot;&gt;&quot;createdAt&quot;&lt;/span&gt;:&amp;nbsp;&lt;span style=&quot;border-color: var(--border-color); color: rgb(4, 81, 165);&quot;&gt;&quot;2023-05-30T10:33:39.000Z&quot;&lt;/span&gt;,&lt;/div&gt;&lt;div style=&quot;border-color: var(--border-color);&quot;&gt;&amp;nbsp;&amp;nbsp;&amp;nbsp;&amp;nbsp;&amp;nbsp;&amp;nbsp;&amp;nbsp;&amp;nbsp;&amp;nbsp;&amp;nbsp;&amp;nbsp;&amp;nbsp;&amp;nbsp;&amp;nbsp;&amp;nbsp;&amp;nbsp;&amp;nbsp;&amp;nbsp;&amp;nbsp;&amp;nbsp;&lt;span style=&quot;border-color: var(--border-color); color: rgb(163, 21, 21);&quot;&gt;&quot;updatedAt&quot;&lt;/span&gt;:&amp;nbsp;&lt;span style=&quot;border-color: var(--border-color); color: rgb(4, 81, 165);&quot;&gt;&quot;2023-05-30T10:33:39.000Z&quot;&lt;/span&gt;,&lt;/div&gt;&lt;div style=&quot;border-color: var(--border-color);&quot;&gt;&amp;nbsp;&amp;nbsp;&amp;nbsp;&amp;nbsp;&amp;nbsp;&amp;nbsp;&amp;nbsp;&amp;nbsp;&amp;nbsp;&amp;nbsp;&amp;nbsp;&amp;nbsp;&amp;nbsp;&amp;nbsp;&amp;nbsp;&amp;nbsp;&amp;nbsp;&amp;nbsp;&amp;nbsp;&amp;nbsp;&lt;span style=&quot;border-color: var(--border-color); color: rgb(163, 21, 21);&quot;&gt;&quot;Keyword&quot;&lt;/span&gt;:&amp;nbsp;{&lt;/div&gt;&lt;div style=&quot;border-color: var(--border-color);&quot;&gt;&amp;nbsp;&amp;nbsp;&amp;nbsp;&amp;nbsp;&amp;nbsp;&amp;nbsp;&amp;nbsp;&amp;nbsp;&amp;nbsp;&amp;nbsp;&amp;nbsp;&amp;nbsp;&amp;nbsp;&amp;nbsp;&amp;nbsp;&amp;nbsp;&amp;nbsp;&amp;nbsp;&amp;nbsp;&amp;nbsp;&amp;nbsp;&amp;nbsp;&amp;nbsp;&amp;nbsp;&lt;span style=&quot;border-color: var(--border-color); color: rgb(163, 21, 21);&quot;&gt;&quot;id&quot;&lt;/span&gt;:&amp;nbsp;&lt;span style=&quot;border-color: var(--border-color); color: rgb(9, 134, 88);&quot;&gt;67&lt;/span&gt;,&lt;/div&gt;&lt;div style=&quot;border-color: var(--border-color);&quot;&gt;&amp;nbsp;&amp;nbsp;&amp;nbsp;&amp;nbsp;&amp;nbsp;&amp;nbsp;&amp;nbsp;&amp;nbsp;&amp;nbsp;&amp;nbsp;&amp;nbsp;&amp;nbsp;&amp;nbsp;&amp;nbsp;&amp;nbsp;&amp;nbsp;&amp;nbsp;&amp;nbsp;&amp;nbsp;&amp;nbsp;&amp;nbsp;&amp;nbsp;&amp;nbsp;&amp;nbsp;&lt;span style=&quot;border-color: var(--border-color); color: rgb(163, 21, 21);&quot;&gt;&quot;name&quot;&lt;/span&gt;:&amp;nbsp;&lt;span style=&quot;border-color: var(--border-color); color: rgb(4, 81, 165);&quot;&gt;&quot;biji&quot;&lt;/span&gt;,&lt;/div&gt;&lt;div style=&quot;border-color: var(--border-color);&quot;&gt;&amp;nbsp;&amp;nbsp;&amp;nbsp;&amp;nbsp;&amp;nbsp;&amp;nbsp;&amp;nbsp;&amp;nbsp;&amp;nbsp;&amp;nbsp;&amp;nbsp;&amp;nbsp;&amp;nbsp;&amp;nbsp;&amp;nbsp;&amp;nbsp;&amp;nbsp;&amp;nbsp;&amp;nbsp;&amp;nbsp;&amp;nbsp;&amp;nbsp;&amp;nbsp;&amp;nbsp;&lt;span style=&quot;border-color: var(--border-color); color: rgb(163, 21, 21);&quot;&gt;&quot;createdAt&quot;&lt;/span&gt;:&amp;nbsp;&lt;span style=&quot;border-color: var(--border-color); color: rgb(4, 81, 165);&quot;&gt;&quot;2023-05-30T10:33:39.000Z&quot;&lt;/span&gt;,&lt;/div&gt;&lt;div style=&quot;border-color: var(--border-color);&quot;&gt;&amp;nbsp;&amp;nbsp;&amp;nbsp;&amp;nbsp;&amp;nbsp;&amp;nbsp;&amp;nbsp;&amp;nbsp;&amp;nbsp;&amp;nbsp;&amp;nbsp;&amp;nbsp;&amp;nbsp;&amp;nbsp;&amp;nbsp;&amp;nbsp;&amp;nbsp;&amp;nbsp;&amp;nbsp;&amp;nbsp;&amp;nbsp;&amp;nbsp;&amp;nbsp;&amp;nbsp;&lt;span style=&quot;border-color: var(--border-color); color: rgb(163, 21, 21);&quot;&gt;&quot;updatedAt&quot;&lt;/span&gt;:&amp;nbsp;&lt;span style=&quot;border-color: var(--border-color); color: rgb(4, 81, 165);&quot;&gt;&quot;2023-05-30T10:33:39.000Z&quot;&lt;/span&gt;&lt;/div&gt;&lt;div style=&quot;border-color: var(--border-color);&quot;&gt;&amp;nbsp;&amp;nbsp;&amp;nbsp;&amp;nbsp;&amp;nbsp;&amp;nbsp;&amp;nbsp;&amp;nbsp;&amp;nbsp;&amp;nbsp;&amp;nbsp;&amp;nbsp;&amp;nbsp;&amp;nbsp;&amp;nbsp;&amp;nbsp;&amp;nbsp;&amp;nbsp;&amp;nbsp;&amp;nbsp;}&lt;/div&gt;&lt;div style=&quot;border-color: var(--border-color);&quot;&gt;&amp;nbsp;&amp;nbsp;&amp;nbsp;&amp;nbsp;&amp;nbsp;&amp;nbsp;&amp;nbsp;&amp;nbsp;&amp;nbsp;&amp;nbsp;&amp;nbsp;&amp;nbsp;&amp;nbsp;&amp;nbsp;&amp;nbsp;&amp;nbsp;},&lt;/div&gt;&lt;div style=&quot;border-color: var(--border-color);&quot;&gt;&amp;nbsp;&amp;nbsp;&amp;nbsp;&amp;nbsp;&amp;nbsp;&amp;nbsp;&amp;nbsp;&amp;nbsp;&amp;nbsp;&amp;nbsp;&amp;nbsp;&amp;nbsp;&amp;nbsp;&amp;nbsp;&amp;nbsp;&amp;nbsp;{&lt;/div&gt;&lt;div style=&quot;border-color: var(--border-color);&quot;&gt;&amp;nbsp;&amp;nbsp;&amp;nbsp;&amp;nbsp;&amp;nbsp;&amp;nbsp;&amp;nbsp;&amp;nbsp;&amp;nbsp;&amp;nbsp;&amp;nbsp;&amp;nbsp;&amp;nbsp;&amp;nbsp;&amp;nbsp;&amp;nbsp;&amp;nbsp;&amp;nbsp;&amp;nbsp;&amp;nbsp;&lt;span style=&quot;border-color: var(--border-color); color: rgb(163, 21, 21);&quot;&gt;&quot;id&quot;&lt;/span&gt;:&amp;nbsp;&lt;span style=&quot;border-color: var(--border-color); color: rgb(9, 134, 88);&quot;&gt;226&lt;/span&gt;,&lt;/div&gt;&lt;div style=&quot;border-color: var(--border-color);&quot;&gt;&amp;nbsp;&amp;nbsp;&amp;nbsp;&amp;nbsp;&amp;nbsp;&amp;nbsp;&amp;nbsp;&amp;nbsp;&amp;nbsp;&amp;nbsp;&amp;nbsp;&amp;nbsp;&amp;nbsp;&amp;nbsp;&amp;nbsp;&amp;nbsp;&amp;nbsp;&amp;nbsp;&amp;nbsp;&amp;nbsp;&lt;span style=&quot;border-color: var(--border-color); color: rgb(163, 21, 21);&quot;&gt;&quot;BlogId&quot;&lt;/span&gt;:&amp;nbsp;&lt;span style=&quot;border-color: var(--border-color); color: rgb(9, 134, 88);&quot;&gt;135&lt;/span&gt;,&lt;/div&gt;&lt;div style=&quot;border-color: var(--border-color);&quot;&gt;&amp;nbsp;&amp;nbsp;&amp;nbsp;&amp;nbsp;&amp;nbsp;&amp;nbsp;&amp;nbsp;&amp;nbsp;&amp;nbsp;&amp;nbsp;&amp;nbsp;&amp;nbsp;&amp;nbsp;&amp;nbsp;&amp;nbsp;&amp;nbsp;&amp;nbsp;&amp;nbsp;&amp;nbsp;&amp;nbsp;&lt;span style=&quot;border-color: var(--border-color); color: rgb(163, 21, 21);&quot;&gt;&quot;KeywordId&quot;&lt;/span&gt;:&amp;nbsp;&lt;span style=&quot;border-color: var(--border-color); color: rgb(9, 134, 88);&quot;&gt;68&lt;/span&gt;,&lt;/div&gt;&lt;div style=&quot;border-color: var(--border-color);&quot;&gt;&amp;nbsp;&amp;nbsp;&amp;nbsp;&amp;nbsp;&amp;nbsp;&amp;nbsp;&amp;nbsp;&amp;nbsp;&amp;nbsp;&amp;nbsp;&amp;nbsp;&amp;nbsp;&amp;nbsp;&amp;nbsp;&amp;nbsp;&amp;nbsp;&amp;nbsp;&amp;nbsp;&amp;nbsp;&amp;nbsp;&lt;span style=&quot;border-color: var(--border-color); color: rgb(163, 21, 21);&quot;&gt;&quot;createdAt&quot;&lt;/span&gt;:&amp;nbsp;&lt;span style=&quot;border-color: var(--border-color); color: rgb(4, 81, 165);&quot;&gt;&quot;2023-05-30T10:33:39.000Z&quot;&lt;/span&gt;,&lt;/div&gt;&lt;div style=&quot;border-color: var(--border-color);&quot;&gt;&amp;nbsp;&amp;nbsp;&amp;nbsp;&amp;nbsp;&amp;nbsp;&amp;nbsp;&amp;nbsp;&amp;nbsp;&amp;nbsp;&amp;nbsp;&amp;nbsp;&amp;nbsp;&amp;nbsp;&amp;nbsp;&amp;nbsp;&amp;nbsp;&amp;nbsp;&amp;nbsp;&amp;nbsp;&amp;nbsp;&lt;span style=&quot;border-color: var(--border-color); color: rgb(163, 21, 21);&quot;&gt;&quot;updatedAt&quot;&lt;/span&gt;:&amp;nbsp;&lt;span style=&quot;border-color: var(--border-color); color: rgb(4, 81, 165);&quot;&gt;&quot;2023-05-30T10:33:39.000Z&quot;&lt;/span&gt;,&lt;/div&gt;&lt;div style=&quot;border-color: var(--border-color);&quot;&gt;&amp;nbsp;&amp;nbsp;&amp;nbsp;&amp;nbsp;&amp;nbsp;&amp;nbsp;&amp;nbsp;&amp;nbsp;&amp;nbsp;&amp;nbsp;&amp;nbsp;&amp;nbsp;&amp;nbsp;&amp;nbsp;&amp;nbsp;&amp;nbsp;&amp;nbsp;&amp;nbsp;&amp;nbsp;&amp;nbsp;&lt;span style=&quot;border-color: var(--border-color); color: rgb(163, 21, 21);&quot;&gt;&quot;Keyword&quot;&lt;/span&gt;:&amp;nbsp;{&lt;/div&gt;&lt;div style=&quot;border-color: var(--border-color);&quot;&gt;&amp;nbsp;&amp;nbsp;&amp;nbsp;&amp;nbsp;&amp;nbsp;&amp;nbsp;&amp;nbsp;&amp;nbsp;&amp;nbsp;&amp;nbsp;&amp;nbsp;&amp;nbsp;&amp;nbsp;&amp;nbsp;&amp;nbsp;&amp;nbsp;&amp;nbsp;&amp;nbsp;&amp;nbsp;&amp;nbsp;&amp;nbsp;&amp;nbsp;&amp;nbsp;&amp;nbsp;&lt;span style=&quot;border-color: var(--border-color); color: rgb(163, 21, 21);&quot;&gt;&quot;id&quot;&lt;/span&gt;:&amp;nbsp;&lt;span style=&quot;border-color: var(--border-color); color: rgb(9, 134, 88);&quot;&gt;68&lt;/span&gt;,&lt;/div&gt;&lt;div style=&quot;border-color: var(--border-color);&quot;&gt;&amp;nbsp;&amp;nbsp;&amp;nbsp;&amp;nbsp;&amp;nbsp;&amp;nbsp;&amp;nbsp;&amp;nbsp;&amp;nbsp;&amp;nbsp;&amp;nbsp;&amp;nbsp;&amp;nbsp;&amp;nbsp;&amp;nbsp;&amp;nbsp;&amp;nbsp;&amp;nbsp;&amp;nbsp;&amp;nbsp;&amp;nbsp;&amp;nbsp;&amp;nbsp;&amp;nbsp;&lt;span style=&quot;border-color: var(--border-color); color: rgb(163, 21, 21);&quot;&gt;&quot;name&quot;&lt;/span&gt;:&amp;nbsp;&lt;span style=&quot;border-color: var(--border-color); color: rgb(4, 81, 165);&quot;&gt;&quot;kiwi&quot;&lt;/span&gt;,&lt;/div&gt;&lt;div style=&quot;border-color: var(--border-color);&quot;&gt;&amp;nbsp;&amp;nbsp;&amp;nbsp;&amp;nbsp;&amp;nbsp;&amp;nbsp;&amp;nbsp;&amp;nbsp;&amp;nbsp;&amp;nbsp;&amp;nbsp;&amp;nbsp;&amp;nbsp;&amp;nbsp;&amp;nbsp;&amp;nbsp;&amp;nbsp;&amp;nbsp;&amp;nbsp;&amp;nbsp;&amp;nbsp;&amp;nbsp;&amp;nbsp;&amp;nbsp;&lt;span style=&quot;border-color: var(--border-color); color: rgb(163, 21, 21);&quot;&gt;&quot;createdAt&quot;&lt;/span&gt;:&amp;nbsp;&lt;span style=&quot;border-color: var(--border-color); color: rgb(4, 81, 165);&quot;&gt;&quot;2023-05-30T10:33:39.000Z&quot;&lt;/span&gt;,&lt;/div&gt;&lt;div style=&quot;border-color: var(--border-color);&quot;&gt;&amp;nbsp;&amp;nbsp;&amp;nbsp;&amp;nbsp;&amp;nbsp;&amp;nbsp;&amp;nbsp;&amp;nbsp;&amp;nbsp;&amp;nbsp;&amp;nbsp;&amp;nbsp;&amp;nbsp;&amp;nbsp;&amp;nbsp;&amp;nbsp;&amp;nbsp;&amp;nbsp;&amp;nbsp;&amp;nbsp;&amp;nbsp;&amp;nbsp;&amp;nbsp;&amp;nbsp;&lt;span style=&quot;border-color: var(--border-color); color: rgb(163, 21, 21);&quot;&gt;&quot;updatedAt&quot;&lt;/span&gt;:&amp;nbsp;&lt;span style=&quot;border-color: var(--border-color); color: rgb(4, 81, 165);&quot;&gt;&quot;2023-05-30T10:33:39.000Z&quot;&lt;/span&gt;&lt;/div&gt;&lt;div style=&quot;border-color: var(--border-color);&quot;&gt;&amp;nbsp;&amp;nbsp;&amp;nbsp;&amp;nbsp;&amp;nbsp;&amp;nbsp;&amp;nbsp;&amp;nbsp;&amp;nbsp;&amp;nbsp;&amp;nbsp;&amp;nbsp;&amp;nbsp;&amp;nbsp;&amp;nbsp;&amp;nbsp;&amp;nbsp;&amp;nbsp;&amp;nbsp;&amp;nbsp;}&lt;/div&gt;&lt;div style=&quot;border-color: var(--border-color);&quot;&gt;&amp;nbsp;&amp;nbsp;&amp;nbsp;&amp;nbsp;&amp;nbsp;&amp;nbsp;&amp;nbsp;&amp;nbsp;&amp;nbsp;&amp;nbsp;&amp;nbsp;&amp;nbsp;&amp;nbsp;&amp;nbsp;&amp;nbsp;&amp;nbsp;}&lt;/div&gt;&lt;div style=&quot;border-color: var(--border-color);&quot;&gt;&amp;nbsp;&amp;nbsp;&amp;nbsp;&amp;nbsp;&amp;nbsp;&amp;nbsp;&amp;nbsp;&amp;nbsp;&amp;nbsp;&amp;nbsp;&amp;nbsp;&amp;nbsp;]&lt;/div&gt;" style="text;strokeColor=none;fillColor=none;align=left;verticalAlign=top;spacingLeft=4;spacingRight=4;overflow=hidden;rotatable=0;points=[[0,0.5],[1,0.5]];portConstraint=eastwest;whiteSpace=wrap;html=1;" parent="A8s8aAI_JmD5nAPYPZiT-31" vertex="1">
                    <mxGeometry y="26" width="430" height="734" as="geometry"/>
                </mxCell>
                <mxCell id="A8s8aAI_JmD5nAPYPZiT-35" value="Get Category" style="swimlane;fontStyle=0;childLayout=stackLayout;horizontal=1;startSize=26;fillColor=none;horizontalStack=0;resizeParent=1;resizeParentMax=0;resizeLast=0;collapsible=1;marginBottom=0;html=1;" parent="WIyWlLk6GJQsqaUBKTNV-1" vertex="1">
                    <mxGeometry x="1120" y="250" width="190" height="540" as="geometry"/>
                </mxCell>
                <mxCell id="A8s8aAI_JmD5nAPYPZiT-36" value="&lt;div style=&quot;background-color: rgb(255, 255, 254); line-height: 18px;&quot;&gt;&lt;div&gt;&amp;nbsp;{&lt;/div&gt;&lt;div&gt;&amp;nbsp;&amp;nbsp;&amp;nbsp;&amp;nbsp;&amp;nbsp;&amp;nbsp;&amp;nbsp;&amp;nbsp;&quot;id&quot;:&amp;nbsp;&lt;span style=&quot;color: #098658;&quot;&gt;1&lt;/span&gt;,&lt;/div&gt;&lt;div&gt;&amp;nbsp;&amp;nbsp;&amp;nbsp;&amp;nbsp;&amp;nbsp;&amp;nbsp;&amp;nbsp;&amp;nbsp;&lt;span style=&quot;color: #a31515;&quot;&gt;&quot;name&quot;&lt;/span&gt;:&amp;nbsp;&lt;span style=&quot;color: #0451a5;&quot;&gt;&quot;Bisnis&quot;&lt;/span&gt;&lt;/div&gt;&lt;div&gt;&amp;nbsp;&amp;nbsp;&amp;nbsp;&amp;nbsp;},&lt;/div&gt;&lt;div&gt;&amp;nbsp;&amp;nbsp;&amp;nbsp;&amp;nbsp;{&lt;/div&gt;&lt;div&gt;&amp;nbsp;&amp;nbsp;&amp;nbsp;&amp;nbsp;&amp;nbsp;&amp;nbsp;&amp;nbsp;&amp;nbsp;&lt;span style=&quot;color: #a31515;&quot;&gt;&quot;id&quot;&lt;/span&gt;:&amp;nbsp;&lt;span style=&quot;color: #098658;&quot;&gt;2&lt;/span&gt;,&lt;/div&gt;&lt;div&gt;&amp;nbsp;&amp;nbsp;&amp;nbsp;&amp;nbsp;&amp;nbsp;&amp;nbsp;&amp;nbsp;&amp;nbsp;&lt;span style=&quot;color: #a31515;&quot;&gt;&quot;name&quot;&lt;/span&gt;:&amp;nbsp;&lt;span style=&quot;color: #0451a5;&quot;&gt;&quot;Ekonomi&quot;&lt;/span&gt;&lt;/div&gt;&lt;div&gt;&amp;nbsp;&amp;nbsp;&amp;nbsp;&amp;nbsp;},&lt;/div&gt;&lt;div&gt;&amp;nbsp;&amp;nbsp;&amp;nbsp;&amp;nbsp;{&lt;/div&gt;&lt;div&gt;&amp;nbsp;&amp;nbsp;&amp;nbsp;&amp;nbsp;&amp;nbsp;&amp;nbsp;&amp;nbsp;&amp;nbsp;&lt;span style=&quot;color: #a31515;&quot;&gt;&quot;id&quot;&lt;/span&gt;:&amp;nbsp;&lt;span style=&quot;color: #098658;&quot;&gt;3&lt;/span&gt;,&lt;/div&gt;&lt;div&gt;&amp;nbsp;&amp;nbsp;&amp;nbsp;&amp;nbsp;&amp;nbsp;&amp;nbsp;&amp;nbsp;&amp;nbsp;&lt;span style=&quot;color: #a31515;&quot;&gt;&quot;name&quot;&lt;/span&gt;:&amp;nbsp;&lt;span style=&quot;color: #0451a5;&quot;&gt;&quot;Teknologi&quot;&lt;/span&gt;&lt;/div&gt;&lt;div&gt;&amp;nbsp;&amp;nbsp;&amp;nbsp;&amp;nbsp;},&lt;/div&gt;&lt;div&gt;&amp;nbsp;&amp;nbsp;&amp;nbsp;&amp;nbsp;{&lt;/div&gt;&lt;div&gt;&amp;nbsp;&amp;nbsp;&amp;nbsp;&amp;nbsp;&amp;nbsp;&amp;nbsp;&amp;nbsp;&amp;nbsp;&lt;span style=&quot;color: #a31515;&quot;&gt;&quot;id&quot;&lt;/span&gt;:&amp;nbsp;&lt;span style=&quot;color: #098658;&quot;&gt;4&lt;/span&gt;,&lt;/div&gt;&lt;div&gt;&amp;nbsp;&amp;nbsp;&amp;nbsp;&amp;nbsp;&amp;nbsp;&amp;nbsp;&amp;nbsp;&amp;nbsp;&lt;span style=&quot;color: #a31515;&quot;&gt;&quot;name&quot;&lt;/span&gt;:&amp;nbsp;&lt;span style=&quot;color: #0451a5;&quot;&gt;&quot;Olahraga&quot;&lt;/span&gt;&lt;/div&gt;&lt;div&gt;&amp;nbsp;&amp;nbsp;&amp;nbsp;&amp;nbsp;},&lt;/div&gt;&lt;div&gt;&amp;nbsp;&amp;nbsp;&amp;nbsp;&amp;nbsp;{&lt;/div&gt;&lt;div&gt;&amp;nbsp;&amp;nbsp;&amp;nbsp;&amp;nbsp;&amp;nbsp;&amp;nbsp;&amp;nbsp;&amp;nbsp;&lt;span style=&quot;color: #a31515;&quot;&gt;&quot;id&quot;&lt;/span&gt;:&amp;nbsp;&lt;span style=&quot;color: #098658;&quot;&gt;5&lt;/span&gt;,&lt;/div&gt;&lt;div&gt;&amp;nbsp;&amp;nbsp;&amp;nbsp;&amp;nbsp;&amp;nbsp;&amp;nbsp;&amp;nbsp;&amp;nbsp;&lt;span style=&quot;color: #a31515;&quot;&gt;&quot;name&quot;&lt;/span&gt;:&amp;nbsp;&lt;span style=&quot;color: #0451a5;&quot;&gt;&quot;Kuliner&quot;&lt;/span&gt;&lt;/div&gt;&lt;div&gt;&amp;nbsp;&amp;nbsp;&amp;nbsp;&amp;nbsp;},&lt;/div&gt;&lt;div&gt;&amp;nbsp;&amp;nbsp;&amp;nbsp;&amp;nbsp;{&lt;/div&gt;&lt;div&gt;&amp;nbsp;&amp;nbsp;&amp;nbsp;&amp;nbsp;&amp;nbsp;&amp;nbsp;&amp;nbsp;&amp;nbsp;&lt;span style=&quot;color: #a31515;&quot;&gt;&quot;id&quot;&lt;/span&gt;:&amp;nbsp;&lt;span style=&quot;color: #098658;&quot;&gt;6&lt;/span&gt;,&lt;/div&gt;&lt;div&gt;&amp;nbsp;&amp;nbsp;&amp;nbsp;&amp;nbsp;&amp;nbsp;&amp;nbsp;&amp;nbsp;&amp;nbsp;&lt;span style=&quot;color: #a31515;&quot;&gt;&quot;name&quot;&lt;/span&gt;:&amp;nbsp;&lt;span style=&quot;color: #0451a5;&quot;&gt;&quot;Internasional&quot;&lt;/span&gt;&lt;/div&gt;&lt;div&gt;&amp;nbsp;&amp;nbsp;&amp;nbsp;&amp;nbsp;},&lt;/div&gt;&lt;div&gt;&amp;nbsp;&amp;nbsp;&amp;nbsp;&amp;nbsp;{&lt;/div&gt;&lt;div&gt;&amp;nbsp;&amp;nbsp;&amp;nbsp;&amp;nbsp;&amp;nbsp;&amp;nbsp;&amp;nbsp;&amp;nbsp;&lt;span style=&quot;color: #a31515;&quot;&gt;&quot;id&quot;&lt;/span&gt;:&amp;nbsp;&lt;span style=&quot;color: #098658;&quot;&gt;7&lt;/span&gt;,&lt;/div&gt;&lt;div&gt;&amp;nbsp;&amp;nbsp;&amp;nbsp;&amp;nbsp;&amp;nbsp;&amp;nbsp;&amp;nbsp;&amp;nbsp;&lt;span style=&quot;color: #a31515;&quot;&gt;&quot;name&quot;&lt;/span&gt;:&amp;nbsp;&lt;span style=&quot;color: #0451a5;&quot;&gt;&quot;Fiksi&quot;&lt;/span&gt;&lt;/div&gt;&lt;div&gt;&amp;nbsp;&amp;nbsp;&amp;nbsp;&amp;nbsp;}&lt;/div&gt;&lt;/div&gt;" style="text;strokeColor=none;fillColor=none;align=left;verticalAlign=top;spacingLeft=4;spacingRight=4;overflow=hidden;rotatable=0;points=[[0,0.5],[1,0.5]];portConstraint=eastwest;whiteSpace=wrap;html=1;" parent="A8s8aAI_JmD5nAPYPZiT-35" vertex="1">
                    <mxGeometry y="26" width="190" height="514" as="geometry"/>
                </mxCell>
                <mxCell id="A8s8aAI_JmD5nAPYPZiT-41" value="create blog" style="swimlane;fontStyle=0;childLayout=stackLayout;horizontal=1;startSize=26;fillColor=none;horizontalStack=0;resizeParent=1;resizeParentMax=0;resizeLast=0;collapsible=1;marginBottom=0;html=1;" parent="WIyWlLk6GJQsqaUBKTNV-1" vertex="1">
                    <mxGeometry x="200" y="330" width="340" height="370" as="geometry"/>
                </mxCell>
                <mxCell id="A8s8aAI_JmD5nAPYPZiT-42" value="&#10;&lt;div style=&quot;color: rgb(0, 0, 0); background-color: rgb(255, 255, 254); font-weight: normal; font-size: 12px; line-height: 18px;&quot;&gt;&lt;div&gt;&lt;span style=&quot;color: #000000;&quot;&gt;&amp;nbsp;&lt;/span&gt;&lt;span style=&quot;color: #a31515;&quot;&gt;&quot;data&quot;&lt;/span&gt;&lt;span style=&quot;color: #000000;&quot;&gt;:&amp;nbsp;{&lt;/span&gt;&lt;/div&gt;&lt;div&gt;&lt;span style=&quot;color: #000000;&quot;&gt;&amp;nbsp;&amp;nbsp;&amp;nbsp;&amp;nbsp;&amp;nbsp;&amp;nbsp;&amp;nbsp;&amp;nbsp;&lt;/span&gt;&lt;span style=&quot;color: #a31515;&quot;&gt;&quot;isPublished&quot;&lt;/span&gt;&lt;span style=&quot;color: #000000;&quot;&gt;:&amp;nbsp;&lt;/span&gt;&lt;span style=&quot;color: #0451a5;font-weight: bold;&quot;&gt;false&lt;/span&gt;&lt;span style=&quot;color: #000000;&quot;&gt;,&lt;/span&gt;&lt;/div&gt;&lt;div&gt;&lt;span style=&quot;color: #000000;&quot;&gt;&amp;nbsp;&amp;nbsp;&amp;nbsp;&amp;nbsp;&amp;nbsp;&amp;nbsp;&amp;nbsp;&amp;nbsp;&lt;/span&gt;&lt;span style=&quot;color: #a31515;&quot;&gt;&quot;isDeleted&quot;&lt;/span&gt;&lt;span style=&quot;color: #000000;&quot;&gt;:&amp;nbsp;&lt;/span&gt;&lt;span style=&quot;color: #0451a5;font-weight: bold;&quot;&gt;false&lt;/span&gt;&lt;span style=&quot;color: #000000;&quot;&gt;,&lt;/span&gt;&lt;/div&gt;&lt;div&gt;&lt;span style=&quot;color: #000000;&quot;&gt;&amp;nbsp;&amp;nbsp;&amp;nbsp;&amp;nbsp;&amp;nbsp;&amp;nbsp;&amp;nbsp;&amp;nbsp;&lt;/span&gt;&lt;span style=&quot;color: #a31515;&quot;&gt;&quot;id&quot;&lt;/span&gt;&lt;span style=&quot;color: #000000;&quot;&gt;:&amp;nbsp;&lt;/span&gt;&lt;span style=&quot;color: #098658;&quot;&gt;136&lt;/span&gt;&lt;span style=&quot;color: #000000;&quot;&gt;,&lt;/span&gt;&lt;/div&gt;&lt;div&gt;&lt;span style=&quot;color: #000000;&quot;&gt;&amp;nbsp;&amp;nbsp;&amp;nbsp;&amp;nbsp;&amp;nbsp;&amp;nbsp;&amp;nbsp;&amp;nbsp;&lt;/span&gt;&lt;span style=&quot;color: #a31515;&quot;&gt;&quot;title&quot;&lt;/span&gt;&lt;span style=&quot;color: #000000;&quot;&gt;:&amp;nbsp;&lt;/span&gt;&lt;span style=&quot;color: #0451a5;&quot;&gt;&quot;test&quot;&lt;/span&gt;&lt;span style=&quot;color: #000000;&quot;&gt;,&lt;/span&gt;&lt;/div&gt;&lt;div&gt;&lt;span style=&quot;color: #000000;&quot;&gt;&amp;nbsp;&amp;nbsp;&amp;nbsp;&amp;nbsp;&amp;nbsp;&amp;nbsp;&amp;nbsp;&amp;nbsp;&lt;/span&gt;&lt;span style=&quot;color: #a31515;&quot;&gt;&quot;content&quot;&lt;/span&gt;&lt;span style=&quot;color: #000000;&quot;&gt;:&amp;nbsp;&lt;/span&gt;&lt;span style=&quot;color: #0451a5;&quot;&gt;&quot;testasdasd&amp;nbsp;adasd&quot;&lt;/span&gt;&lt;span style=&quot;color: #000000;&quot;&gt;,&lt;/span&gt;&lt;/div&gt;&lt;div&gt;&lt;span style=&quot;color: #000000;&quot;&gt;&amp;nbsp;&amp;nbsp;&amp;nbsp;&amp;nbsp;&amp;nbsp;&amp;nbsp;&amp;nbsp;&amp;nbsp;&lt;/span&gt;&lt;span style=&quot;color: #a31515;&quot;&gt;&quot;UserId&quot;&lt;/span&gt;&lt;span style=&quot;color: #000000;&quot;&gt;:&amp;nbsp;&lt;/span&gt;&lt;span style=&quot;color: #098658;&quot;&gt;151&lt;/span&gt;&lt;span style=&quot;color: #000000;&quot;&gt;,&lt;/span&gt;&lt;/div&gt;&lt;div&gt;&lt;span style=&quot;color: #000000;&quot;&gt;&amp;nbsp;&amp;nbsp;&amp;nbsp;&amp;nbsp;&amp;nbsp;&amp;nbsp;&amp;nbsp;&amp;nbsp;&lt;/span&gt;&lt;span style=&quot;color: #a31515;&quot;&gt;&quot;CategoryId&quot;&lt;/span&gt;&lt;span style=&quot;color: #000000;&quot;&gt;:&amp;nbsp;&lt;/span&gt;&lt;span style=&quot;color: #0451a5;&quot;&gt;&quot;3&quot;&lt;/span&gt;&lt;span style=&quot;color: #000000;&quot;&gt;,&lt;/span&gt;&lt;/div&gt;&lt;div&gt;&lt;span style=&quot;color: #000000;&quot;&gt;&amp;nbsp;&amp;nbsp;&amp;nbsp;&amp;nbsp;&amp;nbsp;&amp;nbsp;&amp;nbsp;&amp;nbsp;&lt;/span&gt;&lt;span style=&quot;color: #a31515;&quot;&gt;&quot;imageURL&quot;&lt;/span&gt;&lt;span style=&quot;color: #000000;&quot;&gt;:&amp;nbsp;&lt;/span&gt;&lt;span style=&quot;color: #0451a5;&quot;&gt;&quot;Public/Blog-1685985369081299362.png&quot;&lt;/span&gt;&lt;span style=&quot;color: #000000;&quot;&gt;,&lt;/span&gt;&lt;/div&gt;&lt;div&gt;&lt;span style=&quot;color: #000000;&quot;&gt;&amp;nbsp;&amp;nbsp;&amp;nbsp;&amp;nbsp;&amp;nbsp;&amp;nbsp;&amp;nbsp;&amp;nbsp;&lt;/span&gt;&lt;span style=&quot;color: #a31515;&quot;&gt;&quot;videoURL&quot;&lt;/span&gt;&lt;span style=&quot;color: #000000;&quot;&gt;:&amp;nbsp;&lt;/span&gt;&lt;span style=&quot;color: #0451a5;&quot;&gt;&quot;&quot;&lt;/span&gt;&lt;span style=&quot;color: #000000;&quot;&gt;,&lt;/span&gt;&lt;/div&gt;&lt;div&gt;&lt;span style=&quot;color: #000000;&quot;&gt;&amp;nbsp;&amp;nbsp;&amp;nbsp;&amp;nbsp;&amp;nbsp;&amp;nbsp;&amp;nbsp;&amp;nbsp;&lt;/span&gt;&lt;span style=&quot;color: #a31515;&quot;&gt;&quot;country&quot;&lt;/span&gt;&lt;span style=&quot;color: #000000;&quot;&gt;:&amp;nbsp;&lt;/span&gt;&lt;span style=&quot;color: #0451a5;&quot;&gt;&quot;USA&quot;&lt;/span&gt;&lt;span style=&quot;color: #000000;&quot;&gt;,&lt;/span&gt;&lt;/div&gt;&lt;div&gt;&lt;span style=&quot;color: #000000;&quot;&gt;&amp;nbsp;&amp;nbsp;&amp;nbsp;&amp;nbsp;&amp;nbsp;&amp;nbsp;&amp;nbsp;&amp;nbsp;&lt;/span&gt;&lt;span style=&quot;color: #a31515;&quot;&gt;&quot;updatedAt&quot;&lt;/span&gt;&lt;span style=&quot;color: #000000;&quot;&gt;:&amp;nbsp;&lt;/span&gt;&lt;span style=&quot;color: #0451a5;&quot;&gt;&quot;2023-06-05T17:16:09.155Z&quot;&lt;/span&gt;&lt;span style=&quot;color: #000000;&quot;&gt;,&lt;/span&gt;&lt;/div&gt;&lt;div&gt;&lt;span style=&quot;color: #000000;&quot;&gt;&amp;nbsp;&amp;nbsp;&amp;nbsp;&amp;nbsp;&amp;nbsp;&amp;nbsp;&amp;nbsp;&amp;nbsp;&lt;/span&gt;&lt;span style=&quot;color: #a31515;&quot;&gt;&quot;createdAt&quot;&lt;/span&gt;&lt;span style=&quot;color: #000000;&quot;&gt;:&amp;nbsp;&lt;/span&gt;&lt;span style=&quot;color: #0451a5;&quot;&gt;&quot;2023-06-05T17:16:09.155Z&quot;&lt;/span&gt;&lt;/div&gt;&lt;div&gt;&lt;span style=&quot;color: #000000;&quot;&gt;&amp;nbsp;&amp;nbsp;&amp;nbsp;&amp;nbsp;}&lt;/span&gt;&lt;/div&gt;&lt;/div&gt;&#10;&#10;" style="text;strokeColor=none;fillColor=none;align=left;verticalAlign=top;spacingLeft=4;spacingRight=4;overflow=hidden;rotatable=0;points=[[0,0.5],[1,0.5]];portConstraint=eastwest;whiteSpace=wrap;html=1;" parent="A8s8aAI_JmD5nAPYPZiT-41" vertex="1">
                    <mxGeometry y="26" width="340" height="344" as="geometry"/>
                </mxCell>
                <mxCell id="A8s8aAI_JmD5nAPYPZiT-45" value="get like blog with token" style="swimlane;fontStyle=0;childLayout=stackLayout;horizontal=1;startSize=26;fillColor=none;horizontalStack=0;resizeParent=1;resizeParentMax=0;resizeLast=0;collapsible=1;marginBottom=0;html=1;" parent="WIyWlLk6GJQsqaUBKTNV-1" vertex="1">
                    <mxGeometry x="1360" y="640" width="280" height="340" as="geometry"/>
                </mxCell>
                <mxCell id="A8s8aAI_JmD5nAPYPZiT-46" value="&lt;div style=&quot;background-color: rgb(255, 255, 254); line-height: 18px;&quot;&gt;&lt;div&gt;&amp;nbsp;&amp;nbsp;&amp;nbsp;&amp;nbsp;&amp;nbsp;{&lt;/div&gt;&lt;div&gt;&amp;nbsp;&amp;nbsp;&amp;nbsp;&amp;nbsp;&amp;nbsp;&amp;nbsp;&amp;nbsp;&amp;nbsp;&amp;nbsp;&amp;nbsp;&amp;nbsp;&amp;nbsp;&quot;id&quot;:&amp;nbsp;&lt;span style=&quot;color: #098658;&quot;&gt;27&lt;/span&gt;,&lt;/div&gt;&lt;div&gt;&amp;nbsp;&amp;nbsp;&amp;nbsp;&amp;nbsp;&amp;nbsp;&amp;nbsp;&amp;nbsp;&amp;nbsp;&amp;nbsp;&amp;nbsp;&amp;nbsp;&amp;nbsp;&lt;span style=&quot;color: #a31515;&quot;&gt;&quot;UserId&quot;&lt;/span&gt;:&amp;nbsp;&lt;span style=&quot;color: #098658;&quot;&gt;6&lt;/span&gt;,&lt;/div&gt;&lt;div&gt;&amp;nbsp;&amp;nbsp;&amp;nbsp;&amp;nbsp;&amp;nbsp;&amp;nbsp;&amp;nbsp;&amp;nbsp;&amp;nbsp;&amp;nbsp;&amp;nbsp;&amp;nbsp;&lt;span style=&quot;color: #a31515;&quot;&gt;&quot;BlogId&quot;&lt;/span&gt;:&amp;nbsp;&lt;span style=&quot;color: #098658;&quot;&gt;36&lt;/span&gt;,&lt;/div&gt;&lt;div&gt;&amp;nbsp;&amp;nbsp;&amp;nbsp;&amp;nbsp;&amp;nbsp;&amp;nbsp;&amp;nbsp;&amp;nbsp;&amp;nbsp;&amp;nbsp;&amp;nbsp;&amp;nbsp;&lt;span style=&quot;color: #a31515;&quot;&gt;&quot;createdAt&quot;&lt;/span&gt;:&amp;nbsp;&lt;span style=&quot;color: #0451a5;&quot;&gt;&quot;2023-05-26T02:44:31.000Z&quot;&lt;/span&gt;,&lt;/div&gt;&lt;div&gt;&amp;nbsp;&amp;nbsp;&amp;nbsp;&amp;nbsp;&amp;nbsp;&amp;nbsp;&amp;nbsp;&amp;nbsp;&amp;nbsp;&amp;nbsp;&amp;nbsp;&amp;nbsp;&lt;span style=&quot;color: #a31515;&quot;&gt;&quot;updatedAt&quot;&lt;/span&gt;:&amp;nbsp;&lt;span style=&quot;color: #0451a5;&quot;&gt;&quot;2023-05-26T02:44:31.000Z&quot;&lt;/span&gt;,&lt;/div&gt;&lt;div&gt;&amp;nbsp;&amp;nbsp;&amp;nbsp;&amp;nbsp;&amp;nbsp;&amp;nbsp;&amp;nbsp;&amp;nbsp;&amp;nbsp;&amp;nbsp;&amp;nbsp;&amp;nbsp;&lt;span style=&quot;color: #a31515;&quot;&gt;&quot;Blog&quot;&lt;/span&gt;:&amp;nbsp;{&lt;/div&gt;&lt;div&gt;&amp;nbsp;&amp;nbsp;&amp;nbsp;&amp;nbsp;&amp;nbsp;&amp;nbsp;&amp;nbsp;&amp;nbsp;&amp;nbsp;&amp;nbsp;&amp;nbsp;&amp;nbsp;&amp;nbsp;&amp;nbsp;&amp;nbsp;&amp;nbsp;&lt;span style=&quot;color: #a31515;&quot;&gt;&quot;title&quot;&lt;/span&gt;:&amp;nbsp;&lt;span style=&quot;color: #0451a5;&quot;&gt;&quot;This&amp;nbsp;is&amp;nbsp;a&amp;nbsp;dog&quot;&lt;/span&gt;,&lt;/div&gt;&lt;div&gt;&amp;nbsp;&amp;nbsp;&amp;nbsp;&amp;nbsp;&amp;nbsp;&amp;nbsp;&amp;nbsp;&amp;nbsp;&amp;nbsp;&amp;nbsp;&amp;nbsp;&amp;nbsp;&amp;nbsp;&amp;nbsp;&amp;nbsp;&amp;nbsp;&lt;span style=&quot;color: #a31515;&quot;&gt;&quot;content&quot;&lt;/span&gt;:&amp;nbsp;&lt;span style=&quot;color: #0451a5;&quot;&gt;&quot;Its&amp;nbsp;just&amp;nbsp;a&amp;nbsp;dog]&quot;&lt;/span&gt;,&lt;/div&gt;&lt;div&gt;&amp;nbsp;&amp;nbsp;&amp;nbsp;&amp;nbsp;&amp;nbsp;&amp;nbsp;&amp;nbsp;&amp;nbsp;&amp;nbsp;&amp;nbsp;&amp;nbsp;&amp;nbsp;&amp;nbsp;&amp;nbsp;&amp;nbsp;&amp;nbsp;&lt;span style=&quot;color: #a31515;&quot;&gt;&quot;Category&quot;&lt;/span&gt;:&amp;nbsp;{&lt;/div&gt;&lt;div&gt;&amp;nbsp;&amp;nbsp;&amp;nbsp;&amp;nbsp;&amp;nbsp;&amp;nbsp;&amp;nbsp;&amp;nbsp;&amp;nbsp;&amp;nbsp;&amp;nbsp;&amp;nbsp;&amp;nbsp;&amp;nbsp;&amp;nbsp;&amp;nbsp;&amp;nbsp;&amp;nbsp;&amp;nbsp;&amp;nbsp;&lt;span style=&quot;color: #a31515;&quot;&gt;&quot;id&quot;&lt;/span&gt;:&amp;nbsp;&lt;span style=&quot;color: #098658;&quot;&gt;3&lt;/span&gt;,&lt;/div&gt;&lt;div&gt;&amp;nbsp;&amp;nbsp;&amp;nbsp;&amp;nbsp;&amp;nbsp;&amp;nbsp;&amp;nbsp;&amp;nbsp;&amp;nbsp;&amp;nbsp;&amp;nbsp;&amp;nbsp;&amp;nbsp;&amp;nbsp;&amp;nbsp;&amp;nbsp;&amp;nbsp;&amp;nbsp;&amp;nbsp;&amp;nbsp;&lt;span style=&quot;color: #a31515;&quot;&gt;&quot;name&quot;&lt;/span&gt;:&amp;nbsp;&lt;span style=&quot;color: #0451a5;&quot;&gt;&quot;Teknologi&quot;&lt;/span&gt;,&lt;/div&gt;&lt;div&gt;&amp;nbsp;&amp;nbsp;&amp;nbsp;&amp;nbsp;&amp;nbsp;&amp;nbsp;&amp;nbsp;&amp;nbsp;&amp;nbsp;&amp;nbsp;&amp;nbsp;&amp;nbsp;&amp;nbsp;&amp;nbsp;&amp;nbsp;&amp;nbsp;&amp;nbsp;&amp;nbsp;&amp;nbsp;&amp;nbsp;&lt;span style=&quot;color: #a31515;&quot;&gt;&quot;createdAt&quot;&lt;/span&gt;:&amp;nbsp;&lt;span style=&quot;color: #0451a5;font-weight: bold;&quot;&gt;null&lt;/span&gt;,&lt;/div&gt;&lt;div&gt;&amp;nbsp;&amp;nbsp;&amp;nbsp;&amp;nbsp;&amp;nbsp;&amp;nbsp;&amp;nbsp;&amp;nbsp;&amp;nbsp;&amp;nbsp;&amp;nbsp;&amp;nbsp;&amp;nbsp;&amp;nbsp;&amp;nbsp;&amp;nbsp;&amp;nbsp;&amp;nbsp;&amp;nbsp;&amp;nbsp;&lt;span style=&quot;color: #a31515;&quot;&gt;&quot;updatedAt&quot;&lt;/span&gt;:&amp;nbsp;&lt;span style=&quot;color: #0451a5;font-weight: bold;&quot;&gt;null&lt;/span&gt;&lt;/div&gt;&lt;div&gt;&amp;nbsp;&amp;nbsp;&amp;nbsp;&amp;nbsp;&amp;nbsp;&amp;nbsp;&amp;nbsp;&amp;nbsp;&amp;nbsp;&amp;nbsp;&amp;nbsp;&amp;nbsp;&amp;nbsp;&amp;nbsp;&amp;nbsp;&amp;nbsp;}&lt;/div&gt;&lt;div&gt;&amp;nbsp;&amp;nbsp;&amp;nbsp;&amp;nbsp;&amp;nbsp;&amp;nbsp;&amp;nbsp;&amp;nbsp;&amp;nbsp;&amp;nbsp;&amp;nbsp;&amp;nbsp;}&lt;/div&gt;&lt;div&gt;&amp;nbsp;&amp;nbsp;&amp;nbsp;&amp;nbsp;&amp;nbsp;&amp;nbsp;&amp;nbsp;&amp;nbsp;},&lt;/div&gt;&lt;/div&gt;" style="text;strokeColor=none;fillColor=none;align=left;verticalAlign=top;spacingLeft=4;spacingRight=4;overflow=hidden;rotatable=0;points=[[0,0.5],[1,0.5]];portConstraint=eastwest;whiteSpace=wrap;html=1;" parent="A8s8aAI_JmD5nAPYPZiT-45" vertex="1">
                    <mxGeometry y="26" width="280" height="314" as="geometry"/>
                </mxCell>
                <mxCell id="A8s8aAI_JmD5nAPYPZiT-49" value="get most favorite blog" style="swimlane;fontStyle=0;childLayout=stackLayout;horizontal=1;startSize=26;fillColor=none;horizontalStack=0;resizeParent=1;resizeParentMax=0;resizeLast=0;collapsible=1;marginBottom=0;html=1;" parent="WIyWlLk6GJQsqaUBKTNV-1" vertex="1">
                    <mxGeometry x="1430" y="250" width="210" height="360" as="geometry"/>
                </mxCell>
                <mxCell id="A8s8aAI_JmD5nAPYPZiT-50" value="&lt;div style=&quot;background-color: rgb(255, 255, 254); line-height: 18px;&quot;&gt;&lt;div style=&quot;line-height: 18px;&quot;&gt;&lt;div&gt;{&lt;/div&gt;&lt;div&gt;&amp;nbsp;&amp;nbsp;&amp;nbsp;&amp;nbsp;&amp;nbsp;&amp;nbsp;&amp;nbsp;&amp;nbsp;&amp;nbsp;&amp;nbsp;&amp;nbsp;&amp;nbsp;&quot;id&quot;:&amp;nbsp;&lt;span style=&quot;color: #098658;&quot;&gt;34&lt;/span&gt;,&lt;/div&gt;&lt;div&gt;&amp;nbsp;&amp;nbsp;&amp;nbsp;&amp;nbsp;&amp;nbsp;&amp;nbsp;&amp;nbsp;&amp;nbsp;&amp;nbsp;&amp;nbsp;&amp;nbsp;&amp;nbsp;&lt;span style=&quot;color: #a31515;&quot;&gt;&quot;total_fav&quot;&lt;/span&gt;:&amp;nbsp;&lt;span style=&quot;color: #098658;&quot;&gt;14&lt;/span&gt;,&lt;/div&gt;&lt;div&gt;&amp;nbsp;&amp;nbsp;&amp;nbsp;&amp;nbsp;&amp;nbsp;&amp;nbsp;&amp;nbsp;&amp;nbsp;&amp;nbsp;&amp;nbsp;&amp;nbsp;&amp;nbsp;&lt;span style=&quot;color: #a31515;&quot;&gt;&quot;title&quot;&lt;/span&gt;:&amp;nbsp;&lt;span style=&quot;color: #0451a5;&quot;&gt;&quot;Demo&amp;nbsp;Blog&amp;nbsp;Post&amp;nbsp;2&quot;&lt;/span&gt;,&lt;/div&gt;&lt;div&gt;&amp;nbsp;&amp;nbsp;&amp;nbsp;&amp;nbsp;&amp;nbsp;&amp;nbsp;&amp;nbsp;&amp;nbsp;&amp;nbsp;&amp;nbsp;&amp;nbsp;&amp;nbsp;&lt;span style=&quot;color: #a31515;&quot;&gt;&quot;Likes&quot;&lt;/span&gt;:&amp;nbsp;[&lt;/div&gt;&lt;div&gt;&amp;nbsp;&amp;nbsp;&amp;nbsp;&amp;nbsp;&amp;nbsp;&amp;nbsp;&amp;nbsp;&amp;nbsp;&amp;nbsp;&amp;nbsp;&amp;nbsp;&amp;nbsp;&amp;nbsp;&amp;nbsp;&amp;nbsp;&amp;nbsp;{&lt;/div&gt;&lt;div&gt;&amp;nbsp;&amp;nbsp;&amp;nbsp;&amp;nbsp;&amp;nbsp;&amp;nbsp;&amp;nbsp;&amp;nbsp;&amp;nbsp;&amp;nbsp;&amp;nbsp;&amp;nbsp;&amp;nbsp;&amp;nbsp;&amp;nbsp;&amp;nbsp;&amp;nbsp;&amp;nbsp;&amp;nbsp;&amp;nbsp;&lt;span style=&quot;color: #a31515;&quot;&gt;&quot;id&quot;&lt;/span&gt;:&amp;nbsp;&lt;span style=&quot;color: #098658;&quot;&gt;148&lt;/span&gt;,&lt;/div&gt;&lt;div&gt;&amp;nbsp;&amp;nbsp;&amp;nbsp;&amp;nbsp;&amp;nbsp;&amp;nbsp;&amp;nbsp;&amp;nbsp;&amp;nbsp;&amp;nbsp;&amp;nbsp;&amp;nbsp;&amp;nbsp;&amp;nbsp;&amp;nbsp;&amp;nbsp;&amp;nbsp;&amp;nbsp;&amp;nbsp;&amp;nbsp;&lt;span style=&quot;color: #a31515;&quot;&gt;&quot;BlogId&quot;&lt;/span&gt;:&amp;nbsp;&lt;span style=&quot;color: #098658;&quot;&gt;34&lt;/span&gt;,&lt;/div&gt;&lt;div&gt;&amp;nbsp;&amp;nbsp;&amp;nbsp;&amp;nbsp;&amp;nbsp;&amp;nbsp;&amp;nbsp;&amp;nbsp;&amp;nbsp;&amp;nbsp;&amp;nbsp;&amp;nbsp;&amp;nbsp;&amp;nbsp;&amp;nbsp;&amp;nbsp;&amp;nbsp;&amp;nbsp;&amp;nbsp;&amp;nbsp;&lt;span style=&quot;color: #a31515;&quot;&gt;&quot;UserId&quot;&lt;/span&gt;:&amp;nbsp;&lt;span style=&quot;color: #098658;&quot;&gt;16&lt;/span&gt;,&lt;/div&gt;&lt;div&gt;&amp;nbsp;&amp;nbsp;&amp;nbsp;&amp;nbsp;&amp;nbsp;&amp;nbsp;&amp;nbsp;&amp;nbsp;&amp;nbsp;&amp;nbsp;&amp;nbsp;&amp;nbsp;&amp;nbsp;&amp;nbsp;&amp;nbsp;&amp;nbsp;&amp;nbsp;&amp;nbsp;&amp;nbsp;&amp;nbsp;&lt;span style=&quot;color: #a31515;&quot;&gt;&quot;User&quot;&lt;/span&gt;:&amp;nbsp;{&lt;/div&gt;&lt;div&gt;&amp;nbsp;&amp;nbsp;&amp;nbsp;&amp;nbsp;&amp;nbsp;&amp;nbsp;&amp;nbsp;&amp;nbsp;&amp;nbsp;&amp;nbsp;&amp;nbsp;&amp;nbsp;&amp;nbsp;&amp;nbsp;&amp;nbsp;&amp;nbsp;&amp;nbsp;&amp;nbsp;&amp;nbsp;&amp;nbsp;&amp;nbsp;&amp;nbsp;&amp;nbsp;&amp;nbsp;&lt;span style=&quot;color: #a31515;&quot;&gt;&quot;username&quot;&lt;/span&gt;:&amp;nbsp;&lt;span style=&quot;color: #0451a5;&quot;&gt;&quot;trais14&quot;&lt;/span&gt;&lt;/div&gt;&lt;div&gt;&amp;nbsp;&amp;nbsp;&amp;nbsp;&amp;nbsp;&amp;nbsp;&amp;nbsp;&amp;nbsp;&amp;nbsp;&amp;nbsp;&amp;nbsp;&amp;nbsp;&amp;nbsp;&amp;nbsp;&amp;nbsp;&amp;nbsp;&amp;nbsp;&amp;nbsp;&amp;nbsp;&amp;nbsp;&amp;nbsp;}&lt;/div&gt;&lt;div&gt;&amp;nbsp;&amp;nbsp;&amp;nbsp;&amp;nbsp;&amp;nbsp;&amp;nbsp;&amp;nbsp;&amp;nbsp;&amp;nbsp;&amp;nbsp;&amp;nbsp;&amp;nbsp;&amp;nbsp;&amp;nbsp;&amp;nbsp;&amp;nbsp;}&lt;/div&gt;&lt;div&gt;&amp;nbsp;&amp;nbsp;&amp;nbsp;&amp;nbsp;&amp;nbsp;&amp;nbsp;&amp;nbsp;&amp;nbsp;&amp;nbsp;&amp;nbsp;&amp;nbsp;&amp;nbsp;],&lt;/div&gt;&lt;div&gt;&amp;nbsp;&amp;nbsp;&amp;nbsp;&amp;nbsp;&amp;nbsp;&amp;nbsp;&amp;nbsp;&amp;nbsp;&amp;nbsp;&amp;nbsp;&amp;nbsp;&amp;nbsp;&lt;span style=&quot;color: #a31515;&quot;&gt;&quot;Category&quot;&lt;/span&gt;:&amp;nbsp;{&lt;/div&gt;&lt;div&gt;&amp;nbsp;&amp;nbsp;&amp;nbsp;&amp;nbsp;&amp;nbsp;&amp;nbsp;&amp;nbsp;&amp;nbsp;&amp;nbsp;&amp;nbsp;&amp;nbsp;&amp;nbsp;&amp;nbsp;&amp;nbsp;&amp;nbsp;&amp;nbsp;&lt;span style=&quot;color: #a31515;&quot;&gt;&quot;name&quot;&lt;/span&gt;:&amp;nbsp;&lt;span style=&quot;color: #0451a5;&quot;&gt;&quot;Ekonomi&quot;&lt;/span&gt;&lt;/div&gt;&lt;div&gt;&amp;nbsp;&amp;nbsp;&amp;nbsp;&amp;nbsp;&amp;nbsp;&amp;nbsp;&amp;nbsp;&amp;nbsp;&amp;nbsp;&amp;nbsp;&amp;nbsp;&amp;nbsp;}&lt;/div&gt;&lt;div&gt;&amp;nbsp;&amp;nbsp;&amp;nbsp;&amp;nbsp;&amp;nbsp;&amp;nbsp;&amp;nbsp;&amp;nbsp;},&lt;/div&gt;&lt;/div&gt;&lt;/div&gt;" style="text;strokeColor=none;fillColor=none;align=left;verticalAlign=top;spacingLeft=4;spacingRight=4;overflow=hidden;rotatable=0;points=[[0,0.5],[1,0.5]];portConstraint=eastwest;whiteSpace=wrap;html=1;" parent="A8s8aAI_JmD5nAPYPZiT-49" vertex="1">
                    <mxGeometry y="26" width="210" height="334" as="geometry"/>
                </mxCell>
                <mxCell id="3" value="" style="shape=stencil(fZbdcgIhDIWfZm8zQAg/17Z9j85U606tdqz9e/tmZ0c0uJ47xP0I5JwEBl59bp8/1kNwn6fj4W39M76ctgM/DCGM++36OJ50NPDjwKvN4bh+PR6+9i/z74/n6ctp9H74nlb4nbmSKZeJCu5vngmZ6jzzNAO7cX8FVKEsBuBKrgKg9oAE8gkCbLeUhEoEQKSUDZDLeWYRKIl8MEDRmHwfyBrBG6Amyu4+kDxxMoB3jhwgYu7TVAsVkFcWCs4CTBEoF4RctKeOxHIf8IXYpikHikAIf+MNUW94AGSSaoAoFIE3AlOyeWU+p2E5S9yfQZcQILVuQOwZdJNoS9Ls3wA5u2XZTIHECqeJ9kDpSaauRiNVcAY1QhdBzeLBli5WazpkSsBLV25uRaqWRyFawTQzRRIQYirJzq5atkBqLfouwqUxLBepthWb10vrWZY6UOAeyKCCtDV625mm9gmUC4Wc3VLJMMIE1BsA2FW9JraVlQB7n3c9oMKhCLEvIM1zBPZ25/umNQ1tVEC2G+fFCC8g398O2hNQuQlVu752DBfA+q0ptnqO5JFmeuIuo9DY7KjY71UxdJV4EntifPWorW++R/dC4t7V3DlIB5cHx2bc7eb3yvX//QNFp+bHDT/+Aw==);lineShape=1;" parent="WIyWlLk6GJQsqaUBKTNV-1" vertex="1">
                    <mxGeometry x="565.8330945094681" y="175.81034053469125" width="4.672539772115215" height="4.665236216357243" as="geometry"/>
                </mxCell>
                <mxCell id="4" value="" style="shape=stencil(fZbdcgIhDIWfZm8zQAg/17Z9j85U606tdqz9e/tmZ0c0uJ47xP0I5JwEBl59bp8/1kNwn6fj4W39M76ctgM/DCGM++36OJ50NPDjwKvN4bh+PR6+9i/z74/n6ctp9H74nlb4nbmSKZeJCu5vngmZ6jzzNAO7cX8FVKEsBuBKrgKg9oAE8gkCbLeUhEoEQKSUDZDLeWYRKIl8MEDRmHwfyBrBG6Amyu4+kDxxMoB3jhwgYu7TVAsVkFcWCs4CTBEoF4RctKeOxHIf8IXYpikHikAIf+MNUW94AGSSaoAoFIE3AlOyeWU+p2E5S9yfQZcQILVuQOwZdJNoS9Ls3wA5u2XZTIHECqeJ9kDpSaauRiNVcAY1QhdBzeLBli5WazpkSsBLV25uRaqWRyFawTQzRRIQYirJzq5atkBqLfouwqUxLBepthWb10vrWZY6UOAeyKCCtDV625mm9gmUC4Wc3VLJMMIE1BsA2FW9JraVlQB7n3c9oMKhCLEvIM1zBPZ25/umNQ1tVEC2G+fFCC8g398O2hNQuQlVu752DBfA+q0ptnqO5JFmeuIuo9DY7KjY71UxdJV4EntifPWorW++R/dC4t7V3DlIB5cHx2bc7eb3yvX//QNFp+bHDT/+Aw==);lineShape=1;" parent="WIyWlLk6GJQsqaUBKTNV-1" vertex="1">
                    <mxGeometry x="566.7929944118118" y="171.97034419680062" width="4.672539772115215" height="4.665236216357243" as="geometry"/>
                </mxCell>
                <mxCell id="5" value="" style="shape=stencil(fZbdcgIhDIWfZm8zQAg/17Z9j85U606tdqz9e/tmZ0c0uJ47xP0I5JwEBl59bp8/1kNwn6fj4W39M76ctgM/DCGM++36OJ50NPDjwKvN4bh+PR6+9i/z74/n6ctp9H74nlb4nbmSKZeJCu5vngmZ6jzzNAO7cX8FVKEsBuBKrgKg9oAE8gkCbLeUhEoEQKSUDZDLeWYRKIl8MEDRmHwfyBrBG6Amyu4+kDxxMoB3jhwgYu7TVAsVkFcWCs4CTBEoF4RctKeOxHIf8IXYpikHikAIf+MNUW94AGSSaoAoFIE3AlOyeWU+p2E5S9yfQZcQILVuQOwZdJNoS9Ls3wA5u2XZTIHECqeJ9kDpSaauRiNVcAY1QhdBzeLBli5WazpkSsBLV25uRaqWRyFawTQzRRIQYirJzq5atkBqLfouwqUxLBepthWb10vrWZY6UOAeyKCCtDV625mm9gmUC4Wc3VLJMMIE1BsA2FW9JraVlQB7n3c9oMKhCLEvIM1zBPZ25/umNQ1tVEC2G+fFCC8g398O2hNQuQlVu752DBfA+q0ptnqO5JFmeuIuo9DY7KjY71UxdJV4EntifPWorW++R/dC4t7V3DlIB5cHx2bc7eb3yvX//QNFp+bHDT/+Aw==);lineShape=1;" parent="WIyWlLk6GJQsqaUBKTNV-1" vertex="1">
                    <mxGeometry x="566.7929944118118" y="171.97034419680062" width="4.672539772115215" height="4.665236216357243" as="geometry"/>
                </mxCell>
                <mxCell id="6" value="" style="shape=stencil(fZbdcgIhDIWfZm8zQAg/17Z9j85U606tdqz9e/tmZ0c0uJ47xP0I5JwEBl59bp8/1kNwn6fj4W39M76ctgM/DCGM++36OJ50NPDjwKvN4bh+PR6+9i/z74/n6ctp9H74nlb4nbmSKZeJCu5vngmZ6jzzNAO7cX8FVKEsBuBKrgKg9oAE8gkCbLeUhEoEQKSUDZDLeWYRKIl8MEDRmHwfyBrBG6Amyu4+kDxxMoB3jhwgYu7TVAsVkFcWCs4CTBEoF4RctKeOxHIf8IXYpikHikAIf+MNUW94AGSSaoAoFIE3AlOyeWU+p2E5S9yfQZcQILVuQOwZdJNoS9Ls3wA5u2XZTIHECqeJ9kDpSaauRiNVcAY1QhdBzeLBli5WazpkSsBLV25uRaqWRyFawTQzRRIQYirJzq5atkBqLfouwqUxLBepthWb10vrWZY6UOAeyKCCtDV625mm9gmUC4Wc3VLJMMIE1BsA2FW9JraVlQB7n3c9oMKhCLEvIM1zBPZ25/umNQ1tVEC2G+fFCC8g398O2hNQuQlVu752DBfA+q0ptnqO5JFmeuIuo9DY7KjY71UxdJV4EntifPWorW++R/dC4t7V3DlIB5cHx2bc7eb3yvX//QNFp+bHDT/+Aw==);lineShape=1;" parent="WIyWlLk6GJQsqaUBKTNV-1" vertex="1">
                    <mxGeometry x="576.3930310329056" y="181.57031978273812" width="4.672539772115215" height="4.665236216357243" as="geometry"/>
                </mxCell>
                <mxCell id="7" value="" style="shape=stencil(lZbZbuMwDEW/xq8XkqiFeu7yHwWaToxJkyJNZ/n7oWCoE8oOi745jo5oXl5Smujuff/0tpuCe7+cTz93v+fny36i+ymE+bjfneeLPE30MNHdy+m8+3E+fRyfl99vT21le3o9/Wo7/Fk47xyca1hwf5dXuaAubx4X4jAfr4haULwCCsMXA/DwGuACyrcBduCigBqR/G0gM1zWAIP5NpAiXFTAlQ6bRHQIQwjRwUgiiCisgYBoRPAVLmmZIqKhqycw6UJEsCGTAE7rmiVCMIAM1jKJcFYOIXZNOhAT2AAooVYFUEWy6lC7dT6B3IXe9gYhfgsoeZS1fZIhK6/c90XSVZIuK1mNCLWi6Dq0wpEBMKo2X7OGUelKKGvzGSrJ3zms7G3kUAKSlrU1kGHvxOMnfdmj4r4hBPdJsu0+jzoA0XRf8Mjarm2UJaODEpwG2rA0xoYPvYWvxjHXbwLW/E49w0/zVcRoBIDX3pMWrMb61XlC9vow7k+yg+Ht0p3f10vEYgkkCev2FMmKUbOQV2MSZLmIQTqD0E+X7QKIifT+tq1zGo8eZ36POIx04xC8NSwc/ND7/cDeFnR9ZWg2VxnLw/8bx8t8OCwXluv/xxuKvFpuN/TwDw==);lineShape=1;" parent="WIyWlLk6GJQsqaUBKTNV-1" vertex="1">
                    <mxGeometry x="573.0396595995751" y="205.09703401926004" width="4.619269751067122" height="6.264748308052276" as="geometry"/>
                </mxCell>
                <mxCell id="8" value="" style="shape=stencil(fZbdcgIhDIWfZm8zQAg/17Z9j85U606tdqz9e/tmZ0c0uJ47xP0I5JwEBl59bp8/1kNwn6fj4W39M76ctgM/DCGM++36OJ50NPDjwKvN4bh+PR6+9i/z74/n6ctp9H74nlb4nbmSKZeJCu5vngmZ6jzzNAO7cX8FVKEsBuBKrgKg9oAE8gkCbLeUhEoEQKSUDZDLeWYRKIl8MEDRmHwfyBrBG6Amyu4+kDxxMoB3jhwgYu7TVAsVkFcWCs4CTBEoF4RctKeOxHIf8IXYpikHikAIf+MNUW94AGSSaoAoFIE3AlOyeWU+p2E5S9yfQZcQILVuQOwZdJNoS9Ls3wA5u2XZTIHECqeJ9kDpSaauRiNVcAY1QhdBzeLBli5WazpkSsBLV25uRaqWRyFawTQzRRIQYirJzq5atkBqLfouwqUxLBepthWb10vrWZY6UOAeyKCCtDV625mm9gmUC4Wc3VLJMMIE1BsA2FW9JraVlQB7n3c9oMKhCLEvIM1zBPZ25/umNQ1tVEC2G+fFCC8g398O2hNQuQlVu752DBfA+q0ptnqO5JFmeuIuo9DY7KjY71UxdJV4EntifPWorW++R/dC4t7V3DlIB5cHx2bc7eb3yvX//QNFp+bHDT/+Aw==);lineShape=1;" parent="WIyWlLk6GJQsqaUBKTNV-1" vertex="1">
                    <mxGeometry x="646.4730481227493" y="280.4503246655506" width="4.672539772115215" height="4.665236216357243" as="geometry"/>
                </mxCell>
            </root>
        </mxGraphModel>
    </diagram>
</mxfile>